<mxfile host="app.diagrams.net" modified="2023-07-11T12:20:06.144Z" agent="Mozilla/5.0 (Windows NT 10.0; Win64; x64) AppleWebKit/537.36 (KHTML, like Gecko) Chrome/114.0.0.0 Safari/537.36" etag="m4-DKshbgYggNo6ZUvBF" version="21.6.1" type="github">
  <diagram name="第 1 页" id="-03Gn73uHck9jwQGTfGm">
    <mxGraphModel dx="1687" dy="911" grid="1" gridSize="10" guides="1" tooltips="1" connect="1" arrows="1" fold="1" page="1" pageScale="1" pageWidth="827" pageHeight="1169" math="0" shadow="0">
      <root>
        <mxCell id="0" />
        <mxCell id="1" parent="0" />
        <mxCell id="CoPd3ULI95kJ3X9n0NOn-1" value="Pool" style="swimlane;childLayout=stackLayout;resizeParent=1;resizeParentMax=0;startSize=20;html=1;" parent="1" vertex="1">
          <mxGeometry x="40.000000000000455" y="40" width="640" height="680" as="geometry" />
        </mxCell>
        <mxCell id="CoPd3ULI95kJ3X9n0NOn-2" value="客户" style="swimlane;startSize=20;html=1;" parent="CoPd3ULI95kJ3X9n0NOn-1" vertex="1">
          <mxGeometry y="20" width="160" height="660" as="geometry" />
        </mxCell>
        <mxCell id="CoPd3ULI95kJ3X9n0NOn-46" style="edgeStyle=orthogonalEdgeStyle;rounded=0;orthogonalLoop=1;jettySize=auto;html=1;exitX=0.5;exitY=1;exitDx=0;exitDy=0;entryX=0.5;entryY=0;entryDx=0;entryDy=0;" parent="CoPd3ULI95kJ3X9n0NOn-2" source="CoPd3ULI95kJ3X9n0NOn-7" target="CoPd3ULI95kJ3X9n0NOn-31" edge="1">
          <mxGeometry relative="1" as="geometry" />
        </mxCell>
        <mxCell id="CoPd3ULI95kJ3X9n0NOn-7" value="初审提交付款" style="rounded=1;whiteSpace=wrap;html=1;" parent="CoPd3ULI95kJ3X9n0NOn-2" vertex="1">
          <mxGeometry x="40" y="100" width="80" height="30" as="geometry" />
        </mxCell>
        <mxCell id="CoPd3ULI95kJ3X9n0NOn-11" value="退回" style="edgeStyle=orthogonalEdgeStyle;rounded=0;orthogonalLoop=1;jettySize=auto;html=1;exitX=0;exitY=0.5;exitDx=0;exitDy=0;entryX=0.005;entryY=0.434;entryDx=0;entryDy=0;entryPerimeter=0;" parent="CoPd3ULI95kJ3X9n0NOn-2" source="CoPd3ULI95kJ3X9n0NOn-9" target="CoPd3ULI95kJ3X9n0NOn-7" edge="1">
          <mxGeometry relative="1" as="geometry" />
        </mxCell>
        <mxCell id="CoPd3ULI95kJ3X9n0NOn-9" value="通过" style="rhombus;whiteSpace=wrap;html=1;" parent="CoPd3ULI95kJ3X9n0NOn-2" vertex="1">
          <mxGeometry x="40" y="190" width="80" height="20" as="geometry" />
        </mxCell>
        <mxCell id="CoPd3ULI95kJ3X9n0NOn-31" value="复审审核" style="rounded=1;whiteSpace=wrap;html=1;" parent="CoPd3ULI95kJ3X9n0NOn-2" vertex="1">
          <mxGeometry x="40" y="140" width="80" height="30" as="geometry" />
        </mxCell>
        <mxCell id="CoPd3ULI95kJ3X9n0NOn-10" style="edgeStyle=orthogonalEdgeStyle;rounded=0;orthogonalLoop=1;jettySize=auto;html=1;exitX=0.5;exitY=1;exitDx=0;exitDy=0;entryX=0.5;entryY=0;entryDx=0;entryDy=0;" parent="CoPd3ULI95kJ3X9n0NOn-2" source="CoPd3ULI95kJ3X9n0NOn-31" target="CoPd3ULI95kJ3X9n0NOn-9" edge="1">
          <mxGeometry relative="1" as="geometry">
            <mxPoint x="80.00000000000011" y="220" as="sourcePoint" />
          </mxGeometry>
        </mxCell>
        <mxCell id="CoPd3ULI95kJ3X9n0NOn-20" style="edgeStyle=orthogonalEdgeStyle;rounded=0;orthogonalLoop=1;jettySize=auto;html=1;exitX=0.5;exitY=1;exitDx=0;exitDy=0;entryX=0;entryY=0.5;entryDx=0;entryDy=0;" parent="CoPd3ULI95kJ3X9n0NOn-1" source="CoPd3ULI95kJ3X9n0NOn-9" target="CoPd3ULI95kJ3X9n0NOn-18" edge="1">
          <mxGeometry relative="1" as="geometry">
            <Array as="points">
              <mxPoint x="80" y="245" />
            </Array>
          </mxGeometry>
        </mxCell>
        <mxCell id="CoPd3ULI95kJ3X9n0NOn-3" value="健宇" style="swimlane;startSize=20;html=1;" parent="CoPd3ULI95kJ3X9n0NOn-1" vertex="1">
          <mxGeometry x="160" y="20" width="160" height="660" as="geometry" />
        </mxCell>
        <mxCell id="CoPd3ULI95kJ3X9n0NOn-24" style="edgeStyle=orthogonalEdgeStyle;rounded=0;orthogonalLoop=1;jettySize=auto;html=1;exitX=0.5;exitY=1;exitDx=0;exitDy=0;entryX=0.5;entryY=0;entryDx=0;entryDy=0;" parent="CoPd3ULI95kJ3X9n0NOn-3" source="CoPd3ULI95kJ3X9n0NOn-18" target="CoPd3ULI95kJ3X9n0NOn-21" edge="1">
          <mxGeometry relative="1" as="geometry" />
        </mxCell>
        <mxCell id="CoPd3ULI95kJ3X9n0NOn-18" value="内管初审" style="rounded=1;whiteSpace=wrap;html=1;" parent="CoPd3ULI95kJ3X9n0NOn-3" vertex="1">
          <mxGeometry x="40" y="210" width="80" height="30" as="geometry" />
        </mxCell>
        <mxCell id="CoPd3ULI95kJ3X9n0NOn-21" value="内管复审" style="rounded=1;whiteSpace=wrap;html=1;" parent="CoPd3ULI95kJ3X9n0NOn-3" vertex="1">
          <mxGeometry x="40" y="260" width="80" height="30" as="geometry" />
        </mxCell>
        <mxCell id="CoPd3ULI95kJ3X9n0NOn-25" value="退回" style="edgeStyle=orthogonalEdgeStyle;rounded=0;orthogonalLoop=1;jettySize=auto;html=1;exitX=1;exitY=0.5;exitDx=0;exitDy=0;entryX=1;entryY=0.5;entryDx=0;entryDy=0;" parent="CoPd3ULI95kJ3X9n0NOn-3" source="CoPd3ULI95kJ3X9n0NOn-22" target="CoPd3ULI95kJ3X9n0NOn-18" edge="1">
          <mxGeometry relative="1" as="geometry" />
        </mxCell>
        <mxCell id="CoPd3ULI95kJ3X9n0NOn-22" value="通过" style="rhombus;whiteSpace=wrap;html=1;" parent="CoPd3ULI95kJ3X9n0NOn-3" vertex="1">
          <mxGeometry x="40" y="310" width="80" height="20" as="geometry" />
        </mxCell>
        <mxCell id="CoPd3ULI95kJ3X9n0NOn-23" style="edgeStyle=orthogonalEdgeStyle;rounded=0;orthogonalLoop=1;jettySize=auto;html=1;exitX=0.5;exitY=1;exitDx=0;exitDy=0;entryX=0.5;entryY=0;entryDx=0;entryDy=0;" parent="CoPd3ULI95kJ3X9n0NOn-3" source="CoPd3ULI95kJ3X9n0NOn-21" target="CoPd3ULI95kJ3X9n0NOn-22" edge="1">
          <mxGeometry relative="1" as="geometry" />
        </mxCell>
        <mxCell id="CoPd3ULI95kJ3X9n0NOn-4" value="联易融" style="swimlane;startSize=20;html=1;" parent="CoPd3ULI95kJ3X9n0NOn-1" vertex="1">
          <mxGeometry x="320" y="20" width="160" height="660" as="geometry" />
        </mxCell>
        <mxCell id="CoPd3ULI95kJ3X9n0NOn-35" style="edgeStyle=orthogonalEdgeStyle;rounded=0;orthogonalLoop=1;jettySize=auto;html=1;exitX=0.5;exitY=1;exitDx=0;exitDy=0;entryX=0.5;entryY=0;entryDx=0;entryDy=0;" parent="CoPd3ULI95kJ3X9n0NOn-4" source="CoPd3ULI95kJ3X9n0NOn-28" target="CoPd3ULI95kJ3X9n0NOn-34" edge="1">
          <mxGeometry relative="1" as="geometry" />
        </mxCell>
        <mxCell id="CoPd3ULI95kJ3X9n0NOn-28" value="判断钱包路由/子账户付款" style="rounded=1;whiteSpace=wrap;html=1;" parent="CoPd3ULI95kJ3X9n0NOn-4" vertex="1">
          <mxGeometry x="40" y="330" width="80" height="30" as="geometry" />
        </mxCell>
        <mxCell id="CoPd3ULI95kJ3X9n0NOn-37" style="edgeStyle=orthogonalEdgeStyle;rounded=0;orthogonalLoop=1;jettySize=auto;html=1;exitX=0.5;exitY=1;exitDx=0;exitDy=0;entryX=0.5;entryY=0;entryDx=0;entryDy=0;" parent="CoPd3ULI95kJ3X9n0NOn-4" source="CoPd3ULI95kJ3X9n0NOn-34" target="CoPd3ULI95kJ3X9n0NOn-36" edge="1">
          <mxGeometry relative="1" as="geometry" />
        </mxCell>
        <mxCell id="CoPd3ULI95kJ3X9n0NOn-34" value="判断默认出钱账号" style="rounded=1;whiteSpace=wrap;html=1;" parent="CoPd3ULI95kJ3X9n0NOn-4" vertex="1">
          <mxGeometry x="40" y="380" width="80" height="30" as="geometry" />
        </mxCell>
        <mxCell id="CoPd3ULI95kJ3X9n0NOn-47" style="edgeStyle=orthogonalEdgeStyle;rounded=0;orthogonalLoop=1;jettySize=auto;html=1;exitX=0.5;exitY=1;exitDx=0;exitDy=0;entryX=0.5;entryY=0;entryDx=0;entryDy=0;" parent="CoPd3ULI95kJ3X9n0NOn-4" source="CoPd3ULI95kJ3X9n0NOn-36" target="CoPd3ULI95kJ3X9n0NOn-38" edge="1">
          <mxGeometry relative="1" as="geometry" />
        </mxCell>
        <mxCell id="CoPd3ULI95kJ3X9n0NOn-36" value="判断对内/外付款" style="rounded=1;whiteSpace=wrap;html=1;" parent="CoPd3ULI95kJ3X9n0NOn-4" vertex="1">
          <mxGeometry x="40" y="430" width="80" height="30" as="geometry" />
        </mxCell>
        <mxCell id="CoPd3ULI95kJ3X9n0NOn-61" style="edgeStyle=orthogonalEdgeStyle;rounded=0;orthogonalLoop=1;jettySize=auto;html=1;exitX=0.5;exitY=1;exitDx=0;exitDy=0;entryX=0.5;entryY=0;entryDx=0;entryDy=0;" parent="CoPd3ULI95kJ3X9n0NOn-4" source="CoPd3ULI95kJ3X9n0NOn-38" target="CoPd3ULI95kJ3X9n0NOn-60" edge="1">
          <mxGeometry relative="1" as="geometry" />
        </mxCell>
        <mxCell id="CoPd3ULI95kJ3X9n0NOn-38" value="判断是否需要集资" style="rounded=1;whiteSpace=wrap;html=1;" parent="CoPd3ULI95kJ3X9n0NOn-4" vertex="1">
          <mxGeometry x="40" y="480" width="80" height="30" as="geometry" />
        </mxCell>
        <mxCell id="CoPd3ULI95kJ3X9n0NOn-39" value="&amp;nbsp;提供2级虚拟账号选择" style="rounded=1;whiteSpace=wrap;html=1;" parent="CoPd3ULI95kJ3X9n0NOn-4" vertex="1">
          <mxGeometry x="40" y="30" width="80" height="30" as="geometry" />
        </mxCell>
        <mxCell id="CoPd3ULI95kJ3X9n0NOn-41" value="提供最优付款路由选择" style="rounded=1;whiteSpace=wrap;html=1;" parent="CoPd3ULI95kJ3X9n0NOn-4" vertex="1">
          <mxGeometry x="40" y="70" width="80" height="30" as="geometry" />
        </mxCell>
        <mxCell id="CoPd3ULI95kJ3X9n0NOn-44" value="校验余额" style="rounded=1;whiteSpace=wrap;html=1;" parent="CoPd3ULI95kJ3X9n0NOn-4" vertex="1">
          <mxGeometry x="40" y="110" width="80" height="30" as="geometry" />
        </mxCell>
        <mxCell id="CoPd3ULI95kJ3X9n0NOn-64" style="edgeStyle=orthogonalEdgeStyle;rounded=0;orthogonalLoop=1;jettySize=auto;html=1;exitX=1;exitY=0.5;exitDx=0;exitDy=0;" parent="CoPd3ULI95kJ3X9n0NOn-4" source="CoPd3ULI95kJ3X9n0NOn-60" edge="1">
          <mxGeometry relative="1" as="geometry">
            <mxPoint x="199.99999999999955" y="545" as="targetPoint" />
          </mxGeometry>
        </mxCell>
        <mxCell id="CoPd3ULI95kJ3X9n0NOn-60" value="发起付款" style="shape=process;whiteSpace=wrap;html=1;backgroundOutline=1;" parent="CoPd3ULI95kJ3X9n0NOn-4" vertex="1">
          <mxGeometry x="40" y="530" width="80" height="30" as="geometry" />
        </mxCell>
        <mxCell id="CoPd3ULI95kJ3X9n0NOn-5" value="支付通道" style="swimlane;startSize=20;html=1;" parent="CoPd3ULI95kJ3X9n0NOn-1" vertex="1">
          <mxGeometry x="480" y="20" width="160" height="660" as="geometry" />
        </mxCell>
        <mxCell id="CoPd3ULI95kJ3X9n0NOn-63" value="处理付款" style="rounded=1;whiteSpace=wrap;html=1;" parent="CoPd3ULI95kJ3X9n0NOn-5" vertex="1">
          <mxGeometry x="40" y="530" width="80" height="30" as="geometry" />
        </mxCell>
        <mxCell id="CoPd3ULI95kJ3X9n0NOn-27" style="edgeStyle=orthogonalEdgeStyle;rounded=0;orthogonalLoop=1;jettySize=auto;html=1;exitX=0.5;exitY=1;exitDx=0;exitDy=0;entryX=0;entryY=0.5;entryDx=0;entryDy=0;" parent="CoPd3ULI95kJ3X9n0NOn-1" source="CoPd3ULI95kJ3X9n0NOn-22" target="CoPd3ULI95kJ3X9n0NOn-28" edge="1">
          <mxGeometry relative="1" as="geometry">
            <mxPoint x="360" y="415.4999999999999" as="targetPoint" />
            <Array as="points">
              <mxPoint x="240" y="365" />
            </Array>
          </mxGeometry>
        </mxCell>
        <mxCell id="CoPd3ULI95kJ3X9n0NOn-42" style="edgeStyle=orthogonalEdgeStyle;rounded=0;orthogonalLoop=1;jettySize=auto;html=1;exitX=0;exitY=0.5;exitDx=0;exitDy=0;entryX=1;entryY=0.25;entryDx=0;entryDy=0;" parent="CoPd3ULI95kJ3X9n0NOn-1" source="CoPd3ULI95kJ3X9n0NOn-39" target="CoPd3ULI95kJ3X9n0NOn-7" edge="1">
          <mxGeometry relative="1" as="geometry">
            <Array as="points">
              <mxPoint x="230" y="65" />
              <mxPoint x="230" y="128" />
            </Array>
          </mxGeometry>
        </mxCell>
        <mxCell id="CoPd3ULI95kJ3X9n0NOn-43" style="edgeStyle=orthogonalEdgeStyle;rounded=0;orthogonalLoop=1;jettySize=auto;html=1;exitX=0;exitY=0.5;exitDx=0;exitDy=0;entryX=1;entryY=0.5;entryDx=0;entryDy=0;" parent="CoPd3ULI95kJ3X9n0NOn-1" source="CoPd3ULI95kJ3X9n0NOn-41" target="CoPd3ULI95kJ3X9n0NOn-7" edge="1">
          <mxGeometry relative="1" as="geometry">
            <Array as="points">
              <mxPoint x="250" y="105" />
              <mxPoint x="250" y="135" />
            </Array>
          </mxGeometry>
        </mxCell>
        <mxCell id="CoPd3ULI95kJ3X9n0NOn-45" style="edgeStyle=orthogonalEdgeStyle;rounded=0;orthogonalLoop=1;jettySize=auto;html=1;exitX=0;exitY=0.5;exitDx=0;exitDy=0;entryX=1;entryY=0.75;entryDx=0;entryDy=0;" parent="CoPd3ULI95kJ3X9n0NOn-1" source="CoPd3ULI95kJ3X9n0NOn-44" target="CoPd3ULI95kJ3X9n0NOn-7" edge="1">
          <mxGeometry relative="1" as="geometry" />
        </mxCell>
        <mxCell id="CoPd3ULI95kJ3X9n0NOn-65" style="edgeStyle=orthogonalEdgeStyle;rounded=0;orthogonalLoop=1;jettySize=auto;html=1;exitX=0.5;exitY=1;exitDx=0;exitDy=0;entryX=0.5;entryY=1;entryDx=0;entryDy=0;" parent="CoPd3ULI95kJ3X9n0NOn-1" source="CoPd3ULI95kJ3X9n0NOn-63" target="CoPd3ULI95kJ3X9n0NOn-60" edge="1">
          <mxGeometry relative="1" as="geometry" />
        </mxCell>
        <mxCell id="CoPd3ULI95kJ3X9n0NOn-50" style="edgeStyle=orthogonalEdgeStyle;rounded=0;orthogonalLoop=1;jettySize=auto;html=1;exitX=1;exitY=0.5;exitDx=0;exitDy=0;entryX=0;entryY=0.5;entryDx=0;entryDy=0;" parent="1" source="CoPd3ULI95kJ3X9n0NOn-48" target="CoPd3ULI95kJ3X9n0NOn-49" edge="1">
          <mxGeometry relative="1" as="geometry" />
        </mxCell>
        <mxCell id="CoPd3ULI95kJ3X9n0NOn-48" value="01" style="ellipse;whiteSpace=wrap;html=1;aspect=fixed;" parent="1" vertex="1">
          <mxGeometry x="220" y="1640" width="80" height="80" as="geometry" />
        </mxCell>
        <mxCell id="CoPd3ULI95kJ3X9n0NOn-49" value="04" style="ellipse;whiteSpace=wrap;html=1;aspect=fixed;" parent="1" vertex="1">
          <mxGeometry x="410" y="1640" width="80" height="80" as="geometry" />
        </mxCell>
        <mxCell id="CoPd3ULI95kJ3X9n0NOn-55" style="edgeStyle=orthogonalEdgeStyle;rounded=0;orthogonalLoop=1;jettySize=auto;html=1;exitX=1;exitY=0.5;exitDx=0;exitDy=0;entryX=0;entryY=0.5;entryDx=0;entryDy=0;" parent="1" source="CoPd3ULI95kJ3X9n0NOn-51" target="CoPd3ULI95kJ3X9n0NOn-48" edge="1">
          <mxGeometry relative="1" as="geometry" />
        </mxCell>
        <mxCell id="CoPd3ULI95kJ3X9n0NOn-51" value="00" style="ellipse;whiteSpace=wrap;html=1;aspect=fixed;" parent="1" vertex="1">
          <mxGeometry x="80" y="1640" width="80" height="80" as="geometry" />
        </mxCell>
        <mxCell id="CoPd3ULI95kJ3X9n0NOn-52" value="未调用DBS" style="text;html=1;strokeColor=none;fillColor=none;align=center;verticalAlign=middle;whiteSpace=wrap;rounded=0;" parent="1" vertex="1">
          <mxGeometry x="80" y="1600" width="60" height="30" as="geometry" />
        </mxCell>
        <mxCell id="CoPd3ULI95kJ3X9n0NOn-53" value="调用DBS" style="text;html=1;strokeColor=none;fillColor=none;align=center;verticalAlign=middle;whiteSpace=wrap;rounded=0;" parent="1" vertex="1">
          <mxGeometry x="240" y="1600" width="60" height="30" as="geometry" />
        </mxCell>
        <mxCell id="CoPd3ULI95kJ3X9n0NOn-54" value="1、等待DBS反馈&lt;br&gt;2、DBS 接口返回time out，归为04" style="text;html=1;strokeColor=none;fillColor=none;align=left;verticalAlign=middle;whiteSpace=wrap;rounded=0;" parent="1" vertex="1">
          <mxGeometry x="400" y="1600" width="190" height="30" as="geometry" />
        </mxCell>
        <mxCell id="CoPd3ULI95kJ3X9n0NOn-66" value="Pool" style="swimlane;childLayout=stackLayout;resizeParent=1;resizeParentMax=0;startSize=20;html=1;" parent="1" vertex="1">
          <mxGeometry x="40.000000000000455" y="760" width="640" height="760" as="geometry" />
        </mxCell>
        <mxCell id="CoPd3ULI95kJ3X9n0NOn-98" style="edgeStyle=orthogonalEdgeStyle;rounded=0;orthogonalLoop=1;jettySize=auto;html=1;exitX=0.5;exitY=1;exitDx=0;exitDy=0;entryX=0;entryY=0.5;entryDx=0;entryDy=0;" parent="CoPd3ULI95kJ3X9n0NOn-66" source="CoPd3ULI95kJ3X9n0NOn-80" target="CoPd3ULI95kJ3X9n0NOn-84" edge="1">
          <mxGeometry relative="1" as="geometry">
            <mxPoint x="360" y="525.4999999999999" as="targetPoint" />
            <Array as="points">
              <mxPoint x="240" y="475" />
            </Array>
          </mxGeometry>
        </mxCell>
        <mxCell id="CoPd3ULI95kJ3X9n0NOn-99" style="edgeStyle=orthogonalEdgeStyle;rounded=0;orthogonalLoop=1;jettySize=auto;html=1;exitX=0;exitY=0.5;exitDx=0;exitDy=0;entryX=1;entryY=0.25;entryDx=0;entryDy=0;" parent="CoPd3ULI95kJ3X9n0NOn-66" source="CoPd3ULI95kJ3X9n0NOn-91" target="CoPd3ULI95kJ3X9n0NOn-69" edge="1">
          <mxGeometry relative="1" as="geometry">
            <Array as="points">
              <mxPoint x="200" y="135" />
              <mxPoint x="200" y="238" />
            </Array>
          </mxGeometry>
        </mxCell>
        <mxCell id="CoPd3ULI95kJ3X9n0NOn-100" style="edgeStyle=orthogonalEdgeStyle;rounded=0;orthogonalLoop=1;jettySize=auto;html=1;exitX=0;exitY=0.5;exitDx=0;exitDy=0;entryX=1;entryY=0.5;entryDx=0;entryDy=0;" parent="CoPd3ULI95kJ3X9n0NOn-66" source="CoPd3ULI95kJ3X9n0NOn-92" target="CoPd3ULI95kJ3X9n0NOn-69" edge="1">
          <mxGeometry relative="1" as="geometry">
            <Array as="points">
              <mxPoint x="210" y="175" />
              <mxPoint x="210" y="245" />
            </Array>
          </mxGeometry>
        </mxCell>
        <mxCell id="CoPd3ULI95kJ3X9n0NOn-101" style="edgeStyle=orthogonalEdgeStyle;rounded=0;orthogonalLoop=1;jettySize=auto;html=1;exitX=0;exitY=0.5;exitDx=0;exitDy=0;entryX=1;entryY=0.75;entryDx=0;entryDy=0;" parent="CoPd3ULI95kJ3X9n0NOn-66" source="CoPd3ULI95kJ3X9n0NOn-93" target="CoPd3ULI95kJ3X9n0NOn-69" edge="1">
          <mxGeometry relative="1" as="geometry">
            <Array as="points">
              <mxPoint x="220" y="215" />
              <mxPoint x="220" y="253" />
            </Array>
          </mxGeometry>
        </mxCell>
        <mxCell id="CoPd3ULI95kJ3X9n0NOn-102" style="edgeStyle=orthogonalEdgeStyle;rounded=0;orthogonalLoop=1;jettySize=auto;html=1;exitX=0.5;exitY=1;exitDx=0;exitDy=0;entryX=0.5;entryY=1;entryDx=0;entryDy=0;" parent="CoPd3ULI95kJ3X9n0NOn-66" source="CoPd3ULI95kJ3X9n0NOn-97" target="CoPd3ULI95kJ3X9n0NOn-95" edge="1">
          <mxGeometry relative="1" as="geometry" />
        </mxCell>
        <mxCell id="CoPd3ULI95kJ3X9n0NOn-67" value="联易融自动程序" style="swimlane;startSize=20;html=1;" parent="CoPd3ULI95kJ3X9n0NOn-66" vertex="1">
          <mxGeometry y="20" width="160" height="740" as="geometry" />
        </mxCell>
        <mxCell id="CoPd3ULI95kJ3X9n0NOn-69" value="提交付款办理" style="rounded=1;whiteSpace=wrap;html=1;" parent="CoPd3ULI95kJ3X9n0NOn-67" vertex="1">
          <mxGeometry x="40" y="210" width="80" height="30" as="geometry" />
        </mxCell>
        <mxCell id="CoPd3ULI95kJ3X9n0NOn-111" value="N" style="edgeStyle=orthogonalEdgeStyle;rounded=0;orthogonalLoop=1;jettySize=auto;html=1;exitX=0.5;exitY=1;exitDx=0;exitDy=0;entryX=0.5;entryY=0;entryDx=0;entryDy=0;" parent="CoPd3ULI95kJ3X9n0NOn-67" source="CoPd3ULI95kJ3X9n0NOn-71" target="CoPd3ULI95kJ3X9n0NOn-69" edge="1">
          <mxGeometry relative="1" as="geometry" />
        </mxCell>
        <mxCell id="CoPd3ULI95kJ3X9n0NOn-71" value="校验通过" style="rhombus;whiteSpace=wrap;html=1;" parent="CoPd3ULI95kJ3X9n0NOn-67" vertex="1">
          <mxGeometry x="40" y="140" width="80" height="20" as="geometry" />
        </mxCell>
        <mxCell id="CoPd3ULI95kJ3X9n0NOn-112" style="edgeStyle=orthogonalEdgeStyle;rounded=0;orthogonalLoop=1;jettySize=auto;html=1;exitX=0.5;exitY=1;exitDx=0;exitDy=0;entryX=0.5;entryY=0;entryDx=0;entryDy=0;" parent="CoPd3ULI95kJ3X9n0NOn-67" source="CoPd3ULI95kJ3X9n0NOn-104" target="CoPd3ULI95kJ3X9n0NOn-71" edge="1">
          <mxGeometry relative="1" as="geometry" />
        </mxCell>
        <mxCell id="CoPd3ULI95kJ3X9n0NOn-104" value="根据规则识别需要纳入到自动扣费" style="rounded=1;whiteSpace=wrap;html=1;" parent="CoPd3ULI95kJ3X9n0NOn-67" vertex="1">
          <mxGeometry x="40" y="60" width="80" height="30" as="geometry" />
        </mxCell>
        <mxCell id="CoPd3ULI95kJ3X9n0NOn-75" value="健宇" style="swimlane;startSize=20;html=1;" parent="CoPd3ULI95kJ3X9n0NOn-66" vertex="1">
          <mxGeometry x="160" y="20" width="160" height="740" as="geometry" />
        </mxCell>
        <mxCell id="CoPd3ULI95kJ3X9n0NOn-76" style="edgeStyle=orthogonalEdgeStyle;rounded=0;orthogonalLoop=1;jettySize=auto;html=1;exitX=0.5;exitY=1;exitDx=0;exitDy=0;entryX=0.5;entryY=0;entryDx=0;entryDy=0;" parent="CoPd3ULI95kJ3X9n0NOn-75" source="CoPd3ULI95kJ3X9n0NOn-77" target="CoPd3ULI95kJ3X9n0NOn-78" edge="1">
          <mxGeometry relative="1" as="geometry" />
        </mxCell>
        <mxCell id="CoPd3ULI95kJ3X9n0NOn-77" value="内管付款初审" style="rounded=1;whiteSpace=wrap;html=1;" parent="CoPd3ULI95kJ3X9n0NOn-75" vertex="1">
          <mxGeometry x="40" y="320" width="80" height="30" as="geometry" />
        </mxCell>
        <mxCell id="CoPd3ULI95kJ3X9n0NOn-78" value="内管付款&lt;br&gt;复审" style="rounded=1;whiteSpace=wrap;html=1;" parent="CoPd3ULI95kJ3X9n0NOn-75" vertex="1">
          <mxGeometry x="40" y="370" width="80" height="30" as="geometry" />
        </mxCell>
        <mxCell id="CoPd3ULI95kJ3X9n0NOn-79" value="退回" style="edgeStyle=orthogonalEdgeStyle;rounded=0;orthogonalLoop=1;jettySize=auto;html=1;exitX=1;exitY=0.5;exitDx=0;exitDy=0;entryX=1;entryY=0.5;entryDx=0;entryDy=0;" parent="CoPd3ULI95kJ3X9n0NOn-75" source="CoPd3ULI95kJ3X9n0NOn-80" target="CoPd3ULI95kJ3X9n0NOn-77" edge="1">
          <mxGeometry relative="1" as="geometry" />
        </mxCell>
        <mxCell id="CoPd3ULI95kJ3X9n0NOn-80" value="通过" style="rhombus;whiteSpace=wrap;html=1;" parent="CoPd3ULI95kJ3X9n0NOn-75" vertex="1">
          <mxGeometry x="40" y="420" width="80" height="20" as="geometry" />
        </mxCell>
        <mxCell id="CoPd3ULI95kJ3X9n0NOn-81" style="edgeStyle=orthogonalEdgeStyle;rounded=0;orthogonalLoop=1;jettySize=auto;html=1;exitX=0.5;exitY=1;exitDx=0;exitDy=0;entryX=0.5;entryY=0;entryDx=0;entryDy=0;" parent="CoPd3ULI95kJ3X9n0NOn-75" source="CoPd3ULI95kJ3X9n0NOn-78" target="CoPd3ULI95kJ3X9n0NOn-80" edge="1">
          <mxGeometry relative="1" as="geometry" />
        </mxCell>
        <mxCell id="CoPd3ULI95kJ3X9n0NOn-82" value="联易融" style="swimlane;startSize=20;html=1;" parent="CoPd3ULI95kJ3X9n0NOn-66" vertex="1">
          <mxGeometry x="320" y="20" width="160" height="740" as="geometry" />
        </mxCell>
        <mxCell id="CoPd3ULI95kJ3X9n0NOn-83" style="edgeStyle=orthogonalEdgeStyle;rounded=0;orthogonalLoop=1;jettySize=auto;html=1;exitX=0.5;exitY=1;exitDx=0;exitDy=0;entryX=0.5;entryY=0;entryDx=0;entryDy=0;" parent="CoPd3ULI95kJ3X9n0NOn-82" source="CoPd3ULI95kJ3X9n0NOn-84" target="CoPd3ULI95kJ3X9n0NOn-86" edge="1">
          <mxGeometry relative="1" as="geometry" />
        </mxCell>
        <mxCell id="CoPd3ULI95kJ3X9n0NOn-84" value="判断钱包路由/子账户付款" style="rounded=1;whiteSpace=wrap;html=1;" parent="CoPd3ULI95kJ3X9n0NOn-82" vertex="1">
          <mxGeometry x="40" y="440" width="80" height="30" as="geometry" />
        </mxCell>
        <mxCell id="CoPd3ULI95kJ3X9n0NOn-85" style="edgeStyle=orthogonalEdgeStyle;rounded=0;orthogonalLoop=1;jettySize=auto;html=1;exitX=0.5;exitY=1;exitDx=0;exitDy=0;entryX=0.5;entryY=0;entryDx=0;entryDy=0;" parent="CoPd3ULI95kJ3X9n0NOn-82" source="CoPd3ULI95kJ3X9n0NOn-86" target="CoPd3ULI95kJ3X9n0NOn-88" edge="1">
          <mxGeometry relative="1" as="geometry" />
        </mxCell>
        <mxCell id="CoPd3ULI95kJ3X9n0NOn-86" value="判断默认出钱账号" style="rounded=1;whiteSpace=wrap;html=1;" parent="CoPd3ULI95kJ3X9n0NOn-82" vertex="1">
          <mxGeometry x="40" y="490" width="80" height="30" as="geometry" />
        </mxCell>
        <mxCell id="CoPd3ULI95kJ3X9n0NOn-87" style="edgeStyle=orthogonalEdgeStyle;rounded=0;orthogonalLoop=1;jettySize=auto;html=1;exitX=0.5;exitY=1;exitDx=0;exitDy=0;entryX=0.5;entryY=0;entryDx=0;entryDy=0;" parent="CoPd3ULI95kJ3X9n0NOn-82" source="CoPd3ULI95kJ3X9n0NOn-88" target="CoPd3ULI95kJ3X9n0NOn-90" edge="1">
          <mxGeometry relative="1" as="geometry" />
        </mxCell>
        <mxCell id="CoPd3ULI95kJ3X9n0NOn-88" value="判断对内/外付款" style="rounded=1;whiteSpace=wrap;html=1;" parent="CoPd3ULI95kJ3X9n0NOn-82" vertex="1">
          <mxGeometry x="40" y="540" width="80" height="30" as="geometry" />
        </mxCell>
        <mxCell id="CoPd3ULI95kJ3X9n0NOn-89" style="edgeStyle=orthogonalEdgeStyle;rounded=0;orthogonalLoop=1;jettySize=auto;html=1;exitX=0.5;exitY=1;exitDx=0;exitDy=0;entryX=0.5;entryY=0;entryDx=0;entryDy=0;" parent="CoPd3ULI95kJ3X9n0NOn-82" source="CoPd3ULI95kJ3X9n0NOn-90" target="CoPd3ULI95kJ3X9n0NOn-95" edge="1">
          <mxGeometry relative="1" as="geometry" />
        </mxCell>
        <mxCell id="CoPd3ULI95kJ3X9n0NOn-90" value="判断是否需要集资" style="rounded=1;whiteSpace=wrap;html=1;" parent="CoPd3ULI95kJ3X9n0NOn-82" vertex="1">
          <mxGeometry x="40" y="590" width="80" height="30" as="geometry" />
        </mxCell>
        <mxCell id="CoPd3ULI95kJ3X9n0NOn-91" value="&amp;nbsp;提供2级虚拟账号选择" style="rounded=1;whiteSpace=wrap;html=1;" parent="CoPd3ULI95kJ3X9n0NOn-82" vertex="1">
          <mxGeometry x="40" y="100" width="80" height="30" as="geometry" />
        </mxCell>
        <mxCell id="CoPd3ULI95kJ3X9n0NOn-92" value="提供最优付款路由选择" style="rounded=1;whiteSpace=wrap;html=1;" parent="CoPd3ULI95kJ3X9n0NOn-82" vertex="1">
          <mxGeometry x="40" y="140" width="80" height="30" as="geometry" />
        </mxCell>
        <mxCell id="CoPd3ULI95kJ3X9n0NOn-93" value="校验余额" style="rounded=1;whiteSpace=wrap;html=1;" parent="CoPd3ULI95kJ3X9n0NOn-82" vertex="1">
          <mxGeometry x="40" y="180" width="80" height="30" as="geometry" />
        </mxCell>
        <mxCell id="CoPd3ULI95kJ3X9n0NOn-94" style="edgeStyle=orthogonalEdgeStyle;rounded=0;orthogonalLoop=1;jettySize=auto;html=1;exitX=1;exitY=0.5;exitDx=0;exitDy=0;" parent="CoPd3ULI95kJ3X9n0NOn-82" source="CoPd3ULI95kJ3X9n0NOn-95" edge="1">
          <mxGeometry relative="1" as="geometry">
            <mxPoint x="199.99999999999955" y="655" as="targetPoint" />
          </mxGeometry>
        </mxCell>
        <mxCell id="CoPd3ULI95kJ3X9n0NOn-95" value="发起付款" style="shape=process;whiteSpace=wrap;html=1;backgroundOutline=1;" parent="CoPd3ULI95kJ3X9n0NOn-82" vertex="1">
          <mxGeometry x="40" y="640" width="80" height="30" as="geometry" />
        </mxCell>
        <mxCell id="CoPd3ULI95kJ3X9n0NOn-96" value="支付通道" style="swimlane;startSize=20;html=1;" parent="CoPd3ULI95kJ3X9n0NOn-66" vertex="1">
          <mxGeometry x="480" y="20" width="160" height="740" as="geometry" />
        </mxCell>
        <mxCell id="CoPd3ULI95kJ3X9n0NOn-97" value="处理付款" style="rounded=1;whiteSpace=wrap;html=1;" parent="CoPd3ULI95kJ3X9n0NOn-96" vertex="1">
          <mxGeometry x="40" y="640" width="80" height="30" as="geometry" />
        </mxCell>
        <mxCell id="CoPd3ULI95kJ3X9n0NOn-103" value="扣款清单" style="rounded=1;whiteSpace=wrap;html=1;" parent="CoPd3ULI95kJ3X9n0NOn-96" vertex="1">
          <mxGeometry x="40" y="30" width="80" height="30" as="geometry" />
        </mxCell>
        <mxCell id="CoPd3ULI95kJ3X9n0NOn-106" style="edgeStyle=orthogonalEdgeStyle;rounded=0;orthogonalLoop=1;jettySize=auto;html=1;exitX=0;exitY=0.5;exitDx=0;exitDy=0;entryX=1;entryY=0.5;entryDx=0;entryDy=0;" parent="CoPd3ULI95kJ3X9n0NOn-66" source="CoPd3ULI95kJ3X9n0NOn-103" target="CoPd3ULI95kJ3X9n0NOn-104" edge="1">
          <mxGeometry relative="1" as="geometry">
            <Array as="points">
              <mxPoint x="240" y="65" />
              <mxPoint x="240" y="95" />
            </Array>
          </mxGeometry>
        </mxCell>
        <mxCell id="CoPd3ULI95kJ3X9n0NOn-110" value="退回&lt;br&gt;办理失败" style="edgeStyle=orthogonalEdgeStyle;rounded=0;orthogonalLoop=1;jettySize=auto;html=1;exitX=1;exitY=0.25;exitDx=0;exitDy=0;entryX=1;entryY=1;entryDx=0;entryDy=0;" parent="CoPd3ULI95kJ3X9n0NOn-66" source="CoPd3ULI95kJ3X9n0NOn-77" target="CoPd3ULI95kJ3X9n0NOn-69" edge="1">
          <mxGeometry relative="1" as="geometry">
            <Array as="points">
              <mxPoint x="300" y="348" />
              <mxPoint x="300" y="260" />
            </Array>
          </mxGeometry>
        </mxCell>
        <mxCell id="CoPd3ULI95kJ3X9n0NOn-113" value="Y" style="edgeStyle=orthogonalEdgeStyle;rounded=0;orthogonalLoop=1;jettySize=auto;html=1;exitX=0;exitY=0.5;exitDx=0;exitDy=0;entryX=0;entryY=0.75;entryDx=0;entryDy=0;" parent="CoPd3ULI95kJ3X9n0NOn-66" source="CoPd3ULI95kJ3X9n0NOn-71" target="CoPd3ULI95kJ3X9n0NOn-84" edge="1">
          <mxGeometry relative="1" as="geometry" />
        </mxCell>
      </root>
    </mxGraphModel>
  </diagram>
</mxfile>
